<svg xmlns="http://www.w3.org/2000/svg" viewBox="0 0 200.04 31"><defs><style>.cls-1{fill:#8a898d;}.cls-2{fill:#74a844;}</style></defs><title>Asset 4</title><g id="Layer_2" data-name="Layer 2"><g id="Layer_1-2" data-name="Layer 1"><rect class="cls-1" x="137.07" y="20.42" width="1.67" height="9.48"/><polygon class="cls-1" points="146.54 27.62 146.48 27.62 143.52 23.18 143.52 29.95 141.88 29.95 141.88 20.47 143.65 20.47 146.54 24.95 149.42 20.47 151.2 20.47 151.2 29.95 149.53 29.95 149.53 23.15 146.54 27.62"/><path class="cls-1" d="M163,29.91h-1.76l-1-2.29h-4.48l-1,2.29h-1.71l4.18-9.55h1.54Zm-5-7.56-1.62,3.79h3.26Z"/><path class="cls-1" d="M169.05,30.07a4.71,4.71,0,0,1-4.92-4.89A4.83,4.83,0,0,1,169,20.26a5.09,5.09,0,0,1,3.64,1.29l-1.06,1.26a3.68,3.68,0,0,0-2.65-1,3.21,3.21,0,0,0-3.08,3.36,3.18,3.18,0,0,0,3.23,3.4,3.83,3.83,0,0,0,2.29-.72V26.06H169V24.61h4v4a6,6,0,0,1-3.95,1.48"/><rect class="cls-1" x="175.84" y="20.42" width="1.67" height="9.48"/><polygon class="cls-1" points="187.23 20.42 188.87 20.42 188.87 29.91 187.47 29.91 182.24 23.16 182.24 29.91 180.61 29.91 180.61 20.42 182.15 20.42 187.23 26.98 187.23 20.42"/><path class="cls-1" d="M196.08,30.07a4.71,4.71,0,0,1-4.92-4.89,4.84,4.84,0,0,1,4.9-4.92,5.11,5.11,0,0,1,3.64,1.29l-1.06,1.26a3.69,3.69,0,0,0-2.66-1,3.21,3.21,0,0,0-3.07,3.36,3.17,3.17,0,0,0,3.22,3.4,3.81,3.81,0,0,0,2.29-.72V26.06H196V24.61h4v4a6.07,6.07,0,0,1-4,1.48"/><path class="cls-2" d="M20.84,27.28H3.15V16.92H19.72V13.77H3.15V3.65H20.63a.86.86,0,0,0,.95-.93V.5H0V30.44H21.79V28.23a.88.88,0,0,0-.95-.95"/><path class="cls-2" d="M29.33,29.77l9.51-12.3,9.55,12.31.31.36a1.2,1.2,0,0,0,.44.26,1.42,1.42,0,0,0,.28,0h3.31L40.91,15.13,52.35.5h-3.3a1,1,0,0,0-.74.3l-9.39,12L29.41.69a.86.86,0,0,0-.34-.18,1,1,0,0,0-.3,0H25.4L36.89,15.18l-9,11.63L25,30.44h3.29a1.1,1.1,0,0,0,.29-.05,1.25,1.25,0,0,0,.44-.27Z"/><path class="cls-2" d="M67.54.48,54.76,28.14l-1,2.28h2.65a1.41,1.41,0,0,0,1-.85l3.14-6.77H77.33l3.11,6.77a1.34,1.34,0,0,0,1.09.85H84.3L70.44.48ZM69,4.38l7,15.48H62Z"/><path class="cls-2" d="M112.88,5.11l-.76-.7a22.15,22.15,0,0,0-2-1.62A14.91,14.91,0,0,0,100.93,0C92.54,0,86,6.79,86,15.47v.13C86,24.38,92.37,31,100.87,31c5.8,0,9.25-2.63,11.85-5.19l.36-.36L111.62,24l-.22-.2a.79.79,0,0,0-1.07.05l-.08.07c-3,2.89-5.73,4.08-9.32,4.08-6.15,0-11.06-4.71-11.67-11.19,0-.42-.06-.84-.06-1.36,0-7.1,5-12.46,11.71-12.46.55,0,1.12,0,1.79.09a12.8,12.8,0,0,1,7.24,3.64.55.55,0,0,0,.16.15.86.86,0,0,0,1.07,0Z"/><path class="cls-2" d="M115.4.5V2.71a.83.83,0,0,0,.85.91h9.23V30.44h2.21a.88.88,0,0,0,.95-1V3.62h9.26a.83.83,0,0,0,.81-.91V.5Z"/><path class="cls-1" d="M106.31,15.05v1c0,.25-.11.32-.35.32h-3.82V14.7H106a.3.3,0,0,1,.35.35"/><path class="cls-1" d="M100.48,14.71v1.62H96.65c-.23,0-.34-.08-.34-.33v-.95c0-.24.11-.34.34-.34Z"/><path class="cls-1" d="M102.12,16.33v3.85c0,.23-.1.34-.34.34h-1c-.25,0-.33-.11-.33-.34V16.33Z"/><path class="cls-1" d="M102.12,10.85v3.86H100.5V10.85c0-.23.08-.33.33-.33h1c.24,0,.34.1.34.33"/></g></g></svg>